<svg xmlns="http://www.w3.org/2000/svg" viewBox="0 0 900 260" role="img" aria-labelledby="title desc">
  <title id="title">Logo DPR45</title>
  <desc id="desc">DPR45 Isolation extérieure peinture extérieure bardage</desc>
  <rect width="900" height="260" fill="white"/>
  <path d="M35 125 L140 65 L175 85 L70 145 Z" fill="#3468b6"/>
  <path d="M145 145 L145 80 L285 5 L430 80 L430 100 L285 30 L175 90 L175 145 Z" fill="#d11f3a"/>
  <path d="M180 90 H210 V170 H180 Z" fill="#0c1a2b"/>
  <path d="M220 90 H305 C348 90 378 120 378 150 C378 180 348 210 305 210 H220 Z M250 120 V180 H300 C326 180 345 167 345 150 C345 132 326 120 300 120 Z" fill="#0c1a2b"/>
  <path d="M390 90 H510 C548 90 575 113 575 145 C575 168 560 186 535 195 L585 210 H535 L495 198 H420 V210 H390 Z M420 120 V170 H505 C528 170 542 160 542 145 C542 130 528 120 505 120 Z" fill="#0c1a2b"/>
  <path d="M595 90 H742 V120 H625 V139 H720 V166 H625 V210 H595 Z" fill="#4d78c9"/>
  <path d="M748 90 H832 V118 H777 V140 H826 V168 H777 V210 H748 Z" fill="#4d78c9"/>
  <path d="M838 90 H874 V210 H838 Z" fill="#4d78c9"/>
  <text x="34" y="246" font-family="Arial, sans-serif" font-size="36" fill="#1d1d1d" letter-spacing="1">ISOLATION EXTÉRIEURE · PEINTURE EXTÉRIEURE · BARDAGE</text>
</svg>
